<svg id="Layer_2" data-name="Layer 2" xmlns="http://www.w3.org/2000/svg" viewBox="0 0 198.34 70.7">
<defs><style>.cls-1{fill:#1E293B;}</style></defs>
<path class="cls-1" d="M387.33,285h-8.12l-9.7,16.79q-6.86,11.93-16.26,11.92a12.8,12.8,0,0,1-9.68-4.14,14.39,14.39,0,0,1-3.91-10.27,17.33,17.33,0,0,1,3-9.6,24.22,24.22,0,0,1,8.23-7.66,27.83,27.83,0,0,1,8.64-3.13,69.57,69.57,0,0,1,12.63-.91h2.17l2.31-4.25q4.83-8.88,11.81-11.84a30.33,30.33,0,0,1,11.72-1.9,4.61,4.61,0,0,1,2.9.82,2.74,2.74,0,0,1,1.05,2.29,4.37,4.37,0,0,1-.35,1.58l-.26.67-5,12.63h3c2.18,0,3.28.95,3.28,2.84a3.81,3.81,0,0,1-1.35,2.94,4.73,4.73,0,0,1-3.28,1.22h-4.48l-3.26,8h5.54q3.29,0,3.28,2.81a3.87,3.87,0,0,1-1.34,3,4.75,4.75,0,0,1-3.29,1.22h-7.06a6.27,6.27,0,0,1-4.11-1.3,4.16,4.16,0,0,1-1.6-3.39,13.42,13.42,0,0,1,1.2-4.57Zm-17,0h-2.49q-8.37,0-13.3,3.11a15.52,15.52,0,0,0-5,5,11.3,11.3,0,0,0-1.86,6,6.85,6.85,0,0,0,1.78,4.76,5.65,5.65,0,0,0,4.34,2q4.43,0,7.82-5.86Zm19.87-7,4.22-10.4a8.73,8.73,0,0,0-5.23,2,24.89,24.89,0,0,0-4.85,6.43l-1.2,2Z" transform="translate(-339.66 -243)"/><path class="cls-1" d="M412.79,284l-1,2.47c-.9,2.18-2.07,3.28-3.52,3.28a3.16,3.16,0,0,1-2.19-.79,2.54,2.54,0,0,1-.88-2,7.25,7.25,0,0,1,.64-2.28l3.31-8.18c.8-2,1.94-3,3.4-3a2.48,2.48,0,0,1,2.67,2.06l.23.9c.12.47.29.77.53.88a4.88,4.88,0,0,0,1.73.18h6.85q3.84,0,3.84,2.69,0,3.72-4.86,3.72l-.33.3q-4.65,4.45-4.65,6.88c0,1.62.89,2.43,2.69,2.43h3.69q3.72,0,3.72,2.58a3.32,3.32,0,0,1-1.3,2.81,5.85,5.85,0,0,1-3.65,1H418a6.21,6.21,0,0,1-4.79-2,7.46,7.46,0,0,1-1.86-5.25,8.54,8.54,0,0,1,1-4,24.38,24.38,0,0,1,3.51-4.75Z" transform="translate(-339.66 -243)"/><path class="cls-1" d="M456.14,293.6h3.32q3.69,0,3.69,2.61a3.3,3.3,0,0,1-1.31,2.78,5.84,5.84,0,0,1-3.64,1h-4.66a6.89,6.89,0,0,1-4.06-1.05,3.35,3.35,0,0,1-1.48-2.88,6.87,6.87,0,0,1,.62-2.46l4.83-11.89.32-.82q1.35-3.31,4.34-3.31a3,3,0,0,1,2.12.82,2.56,2.56,0,0,1,.89,2,8.53,8.53,0,0,1-.79,2.87ZM460,268.23a4.08,4.08,0,1,1-2.88,7,4.08,4.08,0,0,1,2.88-7Z" transform="translate(-339.66 -243)"/><path class="cls-1" d="M472.11,293.6h3.08q3.72,0,3.72,2.61A3.3,3.3,0,0,1,477.6,299a5.82,5.82,0,0,1-3.64,1h-5.28a5.21,5.21,0,0,1-3.42-1,3.36,3.36,0,0,1-1.26-2.75,9.54,9.54,0,0,1,.85-3l11.83-29.12.32-.79q1.35-3.28,4.31-3.28a2.94,2.94,0,0,1,2.1.82,2.63,2.63,0,0,1,.86,2,5.63,5.63,0,0,1-.44,2l-.32.79Z" transform="translate(-339.66 -243)"/><path class="cls-1" d="M500.85,293.6h3.4a5.15,5.15,0,0,1,2.87.6,2.25,2.25,0,0,1,.85,2,3.34,3.34,0,0,1-1.3,2.8,5.87,5.87,0,0,1-3.65,1h-5.24a3.22,3.22,0,0,1-3.29-1.9,5.06,5.06,0,0,1-4,1.9h-4.28a6,6,0,0,1-4.27-1.61,5.34,5.34,0,0,1-1.7-4.07A8.86,8.86,0,0,1,481,291l4-9.79q1.68-4.07,4.57-4.07a3.07,3.07,0,0,1,2.14.8,2.58,2.58,0,0,1,.88,2,5.45,5.45,0,0,1-.47,2l-.32.79-3.08,7.53-.32.88a5.5,5.5,0,0,0-.29,1.14c0,.88.53,1.32,1.7,1.32,2.42,0,4-1,4.83-2.93l3.66-9q1.65-4.1,4.63-4.1a3,3,0,0,1,2.11.82,2.58,2.58,0,0,1,.88,2,8.54,8.54,0,0,1-.76,2.81Z" transform="translate(-339.66 -243)"/><path class="cls-1" d="M530.76,293.6h3.52q3.72,0,3.72,2.61a3.28,3.28,0,0,1-1.32,2.78,5.86,5.86,0,0,1-3.63,1h-6.12a4.36,4.36,0,0,1-3-1.08,3.5,3.5,0,0,1-1.21-2.73,8.81,8.81,0,0,1,.82-3l2.58-6.38a5,5,0,0,0,.43-1.61A1.45,1.45,0,0,0,526,284a2.32,2.32,0,0,0-1.53-.49q-3,0-4.87,4.54l-3.45,8.49q-1.56,3.87-4.63,3.87a3.13,3.13,0,0,1-2.14-.76,2.38,2.38,0,0,1-.88-1.88,5.2,5.2,0,0,1,.47-2l.32-.79,5.92-14.59a4,4,0,0,1,3.89-2.84,3.33,3.33,0,0,1,3.23,2,10,10,0,0,1,6-2.4,6.61,6.61,0,0,1,4.54,1.58,5.09,5.09,0,0,1,1.79,4,8,8,0,0,1-.64,3Z" transform="translate(-339.66 -243)"/><path class="cls-1" d="M493.22,254.44c-.74,1.83-2.29,2.74-4.65,2.76h-.86l-23.89.05-7.54,0H453l-3,7.35-.06.16-3.77,9.27v0l0,.09c-.11.34-.26.71-.43,1.1l-.13.28-.43,1.06-.4,1-2.2,5.41-.39,1-.86,2.1-3.06,7.54h3.52a6,6,0,0,1,1.11.14l.21.05a3.25,3.25,0,0,1,.94.4,1.33,1.33,0,0,1,.19.14,1.93,1.93,0,0,1,.5.57,2.53,2.53,0,0,1,.32,1.3,3.29,3.29,0,0,1-1.3,2.78,5.87,5.87,0,0,1-3.65,1h-5.27a5.24,5.24,0,0,1-3.43-1,3.36,3.36,0,0,1-1.26-2.75c0-.09,0-.2,0-.31a5.27,5.27,0,0,1,.17-.8c0-.15.09-.32.14-.49h0a7.23,7.23,0,0,1,.28-.82l0-.08s0-.08.05-.13v0c.05-.11.09-.24.14-.36L434.7,284l2.6-6.38.31-.77s0-.07,0-.11l.2-.51,7.69-18.9h-8.75l-24.49,0h-.86c-2.36,0-3.91-.93-4.65-2.76a2.88,2.88,0,0,1,0-2.25,2.63,2.63,0,0,1,1.49-1.54,5.6,5.6,0,0,1,2-.34h.85l17.33,0h4.93l5.24,0h.12c.36,0,.76,0,1.18,0h8.4l1.36-3.34.32-.79q1.35-3.28,4.3-3.28a2.94,2.94,0,0,1,2.1.82,2.63,2.63,0,0,1,.86,2,5.42,5.42,0,0,1-.44,2l-.32.79-.75,1.86h4l2.31-.06,4.55,0h5l17.33,0h.85a5.6,5.6,0,0,1,2,.34,2.63,2.63,0,0,1,1.49,1.54A2.93,2.93,0,0,1,493.22,254.44Z" transform="translate(-339.66 -243)"/></svg>