<svg id="Layer_2" data-name="Layer 2" xmlns="http://www.w3.org/2000/svg" viewBox="0 0 65.1 53.7">
<defs><style>.cls-1{fill:#1E293B;}</style></defs>
<path class="cls-1" d="M387.33,285h-8.12l-9.7,16.79q-6.86,11.93-16.26,11.92a12.8,12.8,0,0,1-9.68-4.14,14.39,14.39,0,0,1-3.91-10.27,17.33,17.33,0,0,1,3-9.6,24.22,24.22,0,0,1,8.23-7.66,27.83,27.83,0,0,1,8.64-3.13,69.57,69.57,0,0,1,12.63-.91h2.17l2.31-4.25q4.83-8.88,11.81-11.84a30.33,30.33,0,0,1,11.72-1.9,4.61,4.61,0,0,1,2.9.82,2.74,2.74,0,0,1,1.05,2.29,4.37,4.37,0,0,1-.35,1.58l-.26.67-5,12.63h3c2.18,0,3.28.95,3.28,2.84a3.81,3.81,0,0,1-1.35,2.94,4.73,4.73,0,0,1-3.28,1.22h-4.48l-3.26,8h5.54q3.29,0,3.28,2.81a3.87,3.87,0,0,1-1.34,3,4.75,4.75,0,0,1-3.29,1.22h-7.06a6.27,6.27,0,0,1-4.11-1.3,4.16,4.16,0,0,1-1.6-3.39,13.42,13.42,0,0,1,1.2-4.57Zm-17,0h-2.49q-8.37,0-13.3,3.11a15.52,15.52,0,0,0-5,5,11.3,11.3,0,0,0-1.86,6,6.85,6.85,0,0,0,1.78,4.76,5.65,5.65,0,0,0,4.34,2q4.43,0,7.82-5.86Zm19.87-7,4.22-10.4a8.73,8.73,0,0,0-5.23,2,24.89,24.89,0,0,0-4.85,6.43l-1.2,2Z" transform="translate(-339.66 -260)"/></svg>